<svg xmlns="http://www.w3.org/2000/svg" viewBox="0 0 24 24" fill="#FF9900"><path d="M6.5 17.5c2.2 1.6 5.1 2.5 8.1 2.5 1.5 0 3-.3 4.4-.8.3-.1.5.2.3.4-1.7 2-4.5 3.2-7.6 3.2-3.5 0-6.6-1.5-8.6-3.8-.2-.2 0-.5.3-.4.9.4 1.9.7 3.1.9zm13.2-2.1.9-.5c.1 0 .2 0 .2.1l.1.2c-.7 1.1-1.8 2-3.1 2.6l-.2-.1c0-.1 0-.2.1-.2.8-.4 1.5-.9 2-.2zm-15-8.2C5.2 4.7 7.7 3.5 10.5 3.5c2.2 0 4.2.8 5.7 2.1.1.1.1.3 0 .4l-.7.7c-.1.1-.2.1-.3 0C13.8 5.6 12.2 5 10.5 5 8.3 5 6.3 6 5.1 7.5c-.1.1-.3.1-.4 0l-.7-.7c-.1-.1-.1-.2 0-.3.4-.4.8-.7 1.2-1.1z"/></svg>